<?xml version="1.0" encoding="utf-8"?><!DOCTYPE svg PUBLIC "-//W3C//DTD SVG 1.1//EN" "http://www.w3.org/Graphics/SVG/1.1/DTD/svg11.dtd"><svg xmlns="http://www.w3.org/2000/svg" xmlns:xlink="http://www.w3.org/1999/xlink"><defs><svg viewBox="0 0 24 24" id="anchor"><title>Creative Anchor</title><path d="M18 13.5a1 1 0 0 0-1 1 5.007 5.007 0 0 1-4 4.898V12h4a1 1 0 0 0 0-2h-4V8.816A2.99 2.99 0 0 0 15 6a3 3 0 0 0-6 0 2.99 2.99 0 0 0 2 2.816V10H7a1 1 0 0 0 0 2h4v7.398A5.008 5.008 0 0 1 7 14.5a1 1 0 0 0-2 0c0 3.86 3.14 7 7 7s7-3.14 7-7a1 1 0 0 0-1-1zM12 5c.55 0 1 .45 1 1s-.45 1-1 1-1-.45-1-1 .45-1 1-1z"/></svg><svg viewBox="0 0 16 16" fill-rule="evenodd" clip-rule="evenodd" stroke-linejoin="round" stroke-miterlimit="1.414" id="behance"><title>Behance</title><path d="M4.64 2.987a6 6 0 0 1 1.284.125c.386.082.715.218.994.406.274.187.49.436.642.75.15.31.226.697.226 1.155 0 .495-.113.91-.338 1.24-.226.33-.56.602-1.004.812.606.174 1.054.48 1.352.916.3.44.445.966.445 1.58 0 .5-.094.93-.284 1.29a2.51 2.51 0 0 1-.78.894c-.325.23-.7.4-1.12.51-.413.11-.844.165-1.285.165H0V2.99h4.64zm6.69 8.133c.293.286.717.43 1.266.43.394 0 .736-.1 1.022-.3.284-.197.456-.41.523-.63h1.726c-.277.857-.698 1.47-1.27 1.838-.568.37-1.26.555-2.065.555a4.09 4.09 0 0 1-1.52-.27 3.21 3.21 0 0 1-1.15-.766 3.51 3.51 0 0 1-.723-1.188 4.36 4.36 0 0 1-.256-1.52c0-.533.09-1.03.264-1.49.178-.463.423-.86.746-1.196.323-.335.707-.6 1.154-.794a3.72 3.72 0 0 1 1.486-.29c.603 0 1.13.117 1.584.353.45.233.82.55 1.11.945.292.394.498.846.628 1.353.127.507.172 1.035.136 1.588h-5.143c0 .563.19 1.097.485 1.383zm-6.85.033c.213 0 .416-.02.607-.062a1.44 1.44 0 0 0 .51-.207c.146-.096.266-.226.353-.393.087-.166.13-.38.13-.64 0-.506-.143-.866-.427-1.085-.285-.215-.664-.323-1.13-.323H2.167v2.71H4.48zm9.1-3.777c-.234-.258-.628-.397-1.108-.397-.313 0-.572.05-.78.16a1.573 1.573 0 0 0-.495.39c-.126.16-.212.325-.262.503-.05.173-.08.33-.09.47h3.185c-.047-.5-.217-.87-.45-1.128zm-9.22-.413c.384 0 .702-.09.953-.276.25-.182.37-.482.37-.895 0-.23-.04-.418-.12-.565a.9.9 0 0 0-.334-.342 1.357 1.357 0 0 0-.48-.173 2.875 2.875 0 0 0-.557-.05H2.167v2.3H4.36zm6.085-3.316h3.99v.972h-3.99v-.974z"/></svg><svg viewBox="0 0 16 16" fill-rule="evenodd" clip-rule="evenodd" stroke-linejoin="round" stroke-miterlimit="1.414" id="codepen"><title>CodePen</title><path d="M15.988 5.443c-.004-.02-.007-.04-.012-.058l-.01-.033c-.006-.017-.012-.034-.02-.05-.003-.012-.01-.023-.014-.034l-.023-.045-.02-.032-.03-.04-.025-.03a.402.402 0 0 0-.034-.037l-.026-.027-.04-.032-.03-.024-.012-.01L8.38.117a.68.68 0 0 0-.76 0L.305 4.99.295 5a.262.262 0 0 0-.03.023.4.4 0 0 0-.04.032l-.028.027-.034.037-.024.03-.03.04c-.007.01-.014.02-.02.032l-.024.045L.05 5.3c-.006.017-.01.034-.017.05l-.01.033c-.005.02-.01.038-.012.058l-.005.03A.87.87 0 0 0 0 5.56v4.875c0 .03.002.06.006.09l.007.03c.003.02.006.04.013.058l.01.033c.006.018.01.035.018.05l.015.033c.005.015.013.03.022.046l.02.03a.16.16 0 0 0 .03.042c.007.01.014.02.023.03.01.012.02.025.034.036.01.01.017.02.027.026l.04.033.03.023.01.01 7.31 4.876a.685.685 0 0 0 .762 0l7.313-4.875.01-.01a.262.262 0 0 0 .032-.023.4.4 0 0 0 .04-.032l.027-.027.034-.037.024-.03.03-.04.02-.032.023-.046.015-.033.018-.052.01-.033c.005-.02.01-.038.013-.058l.003-.03a.68.68 0 0 0 .006-.09v-4.87a.68.68 0 0 0-.007-.09l-.007-.03zM8 9.626L5.568 8 8 6.374 10.432 8 8 9.626zM7.312 5.18l-2.98 1.993-2.406-1.61 5.386-3.59V5.18zM3.095 8l-1.72 1.15v-2.3L3.095 8zm1.237.828l2.98 1.993v3.21l-5.386-3.59 2.406-1.61zm4.355 1.993l2.98-1.992 2.407 1.61-5.387 3.59v-3.206zM12.905 8l1.72-1.15v2.3L12.905 8zm-1.237-.827L8.688 5.18V1.97l5.386 3.59-2.406 1.61z" fill-rule="nonzero"/></svg><svg viewBox="0 0 16 16" fill-rule="evenodd" clip-rule="evenodd" stroke-linejoin="round" stroke-miterlimit="1.414" id="dribbble"><title>Dribbble</title><path d="M8 16c-4.41 0-8-3.59-8-8s3.59-8 8-8 8 3.59 8 8-3.59 8-8 8zm6.747-6.905c-.234-.074-2.115-.635-4.257-.292.894 2.456 1.258 4.456 1.328 4.872a6.856 6.856 0 0 0 2.93-4.58zM10.67 14.3c-.102-.6-.5-2.688-1.46-5.18l-.044.014C5.312 10.477 3.93 13.15 3.806 13.4A6.788 6.788 0 0 0 8 14.844c.947 0 1.85-.194 2.67-.543zm-7.747-1.72c.155-.266 2.03-3.37 5.555-4.51.09-.03.18-.056.27-.08-.173-.39-.36-.778-.555-1.16-3.413 1.02-6.723.977-7.023.97l-.003.208a6.81 6.81 0 0 0 1.756 4.57zM1.31 6.61c.307.005 3.122.017 6.318-.832a43.733 43.733 0 0 0-2.533-3.952A6.86 6.86 0 0 0 1.31 6.61zM6.4 1.368c.188.253 1.43 1.943 2.548 4 2.43-.91 3.46-2.293 3.582-2.468A6.797 6.797 0 0 0 6.4 1.366zm6.89 2.322c-.145.194-1.29 1.662-3.816 2.694a20.578 20.578 0 0 1 .6 1.342c2.274-.286 4.533.172 4.758.22A6.794 6.794 0 0 0 13.29 3.69z"/></svg><svg viewBox="0 0 32 32" id="email"><title>Email Development</title><path d="M25.333 9.333H6.666A2.668 2.668 0 0 0 4 12v12a2.668 2.668 0 0 0 2.666 2.667h18.667A2.668 2.668 0 0 0 28 24V12a2.668 2.668 0 0 0-2.667-2.667zM12.42 19.088l2.137 1.867c.407.355.92.53 1.443.53s1.036-.176 1.443-.53l2.136-1.867-.05.05 4.86 4.86H7.61l4.86-4.86-.048-.05zm-5.753 3.97v-9.005l4.803 4.2-4.803 4.804zm13.864-4.803l4.804-4.2v9l-4.803-4.8zM25.334 12v.28l-8.768 7.672c-.303.264-.828.264-1.13 0l-8.77-7.672V12h18.668z"/></svg><svg viewBox="0 0 392.186 392.186" id="front-end-dev"><title>Front-End Development</title><path d="M368.62 17.95H23.568C10.57 17.95 0 28.525 0 41.52v309.146c0 12.996 10.57 23.568 23.568 23.568H368.62c12.995 0 23.565-10.572 23.565-23.568V41.52c.003-12.995-10.57-23.57-23.565-23.57zM297.56 57.53a8.703 8.703 0 0 1 8.7-8.703h8.704a8.7 8.7 0 0 1 8.7 8.703v9.863a8.702 8.702 0 0 1-8.7 8.703h-8.703a8.702 8.702 0 0 1-8.7-8.702V57.53zm-40.467 0a8.704 8.704 0 0 1 8.703-8.703h8.7a8.704 8.704 0 0 1 8.704 8.703v9.863a8.703 8.703 0 0 1-8.703 8.703h-8.7a8.703 8.703 0 0 1-8.704-8.702V57.53zm106.81 288.423H28.283V102.236h335.62V345.95zm.23-278.56a8.702 8.702 0 0 1-8.702 8.703h-8.702a8.7 8.7 0 0 1-8.702-8.702V57.53a8.703 8.703 0 0 1 8.702-8.703h8.703a8.7 8.7 0 0 1 8.702 8.703v9.863z"/><path d="M84.185 233.284l63.084 29.336a12.27 12.27 0 0 0 11.76-.786 12.214 12.214 0 0 0 5.665-10.334v-.322a12.3 12.3 0 0 0-7.096-11.118l-39.456-18.332 39.455-18.334a12.302 12.302 0 0 0 7.095-11.117v-.32c0-4.21-2.12-8.074-5.666-10.333a12.242 12.242 0 0 0-6.606-1.916c-1.78 0-3.563.39-5.16 1.133l-63.08 29.334a12.305 12.305 0 0 0-7.09 11.117v.878c0 4.74 2.78 9.104 7.09 11.116zM165.257 293.036c2.3 3.15 6.002 5.03 9.9 5.03h.316c5.352 0 10.04-3.426 11.672-8.517L228.7 160.787a12.3 12.3 0 0 0-1.77-10.973 12.3 12.3 0 0 0-9.902-5.03h-.315a12.224 12.224 0 0 0-11.68 8.516l-41.558 128.772a12.316 12.316 0 0 0 1.782 10.964zM227.49 192.276c0 4.745 2.783 9.11 7.095 11.123l39.455 18.328-39.455 18.33a12.304 12.304 0 0 0-7.095 11.118v.322a12.21 12.21 0 0 0 5.668 10.336 12.25 12.25 0 0 0 6.595 1.924c1.793 0 3.528-.383 5.17-1.142l63.08-29.335c4.307-2.008 7.09-6.37 7.09-11.114v-.877c0-4.75-2.783-9.114-7.094-11.118l-63.08-29.333a12.296 12.296 0 0 0-5.153-1.132c-2.355 0-4.643.66-6.604 1.912a12.2 12.2 0 0 0-5.67 10.337v.318h-.003z"/></svg><svg viewBox="0 0 16 16" fill-rule="evenodd" clip-rule="evenodd" stroke-linejoin="round" stroke-miterlimit="1.414" id="git"><title>Git</title><path d="M15.698 7.287L8.708.302a1.034 1.034 0 0 0-1.46 0L5.8 1.752l1.84 1.84a1.225 1.225 0 0 1 1.552 1.56l1.774 1.774a1.225 1.225 0 0 1 1.268 2.025 1.225 1.225 0 0 1-2.002-1.332L8.574 5.963v4.352a1.228 1.228 0 1 1-1.01-.036V5.887A1.223 1.223 0 0 1 6.9 4.28L5.084 2.465.29 7.255c-.4.403-.4 1.055 0 1.458l6.992 6.985a1.03 1.03 0 0 0 1.458 0l6.958-6.953a1.03 1.03 0 0 0 0-1.458" fill-rule="nonzero"/></svg><svg viewBox="0 0 16 16" fill-rule="evenodd" clip-rule="evenodd" stroke-linejoin="round" stroke-miterlimit="1.414" id="github"><title>Github</title><path d="M8 0a8 8 0 0 0-8 8 8 8 0 0 0 5.47 7.59c.4.075.547-.172.547-.385 0-.19-.007-.693-.01-1.36-2.226.483-2.695-1.073-2.695-1.073-.364-.924-.89-1.17-.89-1.17-.725-.496.056-.486.056-.486.803.056 1.225.824 1.225.824.714 1.223 1.873.87 2.33.665.072-.517.278-.87.507-1.07-1.777-.2-3.644-.888-3.644-3.953 0-.873.31-1.587.823-2.147-.084-.202-.36-1.015.076-2.117 0 0 .672-.215 2.2.82A7.68 7.68 0 0 1 8 3.868c.68.004 1.363.092 2.002.27 1.527-1.035 2.198-.82 2.198-.82.437 1.102.163 1.915.08 2.117a3.09 3.09 0 0 1 .823 2.147c0 3.073-1.87 3.75-3.653 3.947.287.245.543.734.543 1.48 0 1.07-.01 1.932-.01 2.194 0 .215.144.463.55.385A8 8 0 0 0 8 0"/></svg><svg viewBox="0 0 260 260" id="gulp"><title>Gulp</title><path d="M161.6 251.5l2.5-41.4 6.9-11.7s-15.6 6.4-41.7 6.4-41.5-6.3-41.5-6.3l7.7 12.8 2.7 40.2c0 4.3 14.2 7.8 31.7 7.8s31.7-3.5 31.7-7.8M153.8 58.4l5.2-20.6 28.8-30.4-7.6-6.4-30.5 32.3-6 24.6c-4.4-.1-9-.2-13.7-.2-32.2 0-58.2 3.7-58.2 8.2 0 4.5 26.1 8.2 58.2 8.2 32.2 0 58.2-3.7 58.2-8.2 0-3.3-14.1-6.2-34.4-7.5"/><path d="M150.8 70s-1.1.3-4.4.3c-3.3 0-5.7 0-6.6-.9-.3-.2-.4-.7-.4-1 0-.6.4-.9 1-1.2l.5.8c-.2.1-.3.2-.3.3 0 .4 3.4.8 6 .7 2.6 0 5.7-.2 5.7-.7 0-.1-.2-.3-.7-.4l.5-.8c.7.2 1.3.6 1.3 1.3-.1 1.2-1.7 1.4-2.6 1.6M187.8 7.5c.7-.8-.4-3-2.5-4.8-2-1.7-4.3-2.5-5.1-1.7-.7.8.4 3 2.5 4.8 2.1 1.8 4.4 2.6 5.1 1.7"/><path d="M160.2 150.5c-.7-6.6 14.4-16.1 10.5-16.4-8.3.5-12.5 9.8-16.7 19.5-1.5 3.6-6.8 18.8-10.2 16.9-3.4-1.9 4.5-14.4 6.7-21.8-2.6 1.9-11.9 9.2-14.4 2.3-3.9 3.3-12.2 5.1-11.3-3.6-2.1 3.7-6.7 8.8-12.3 6.7-7.3-2.8 4.2-26.1 7.1-24.9 2.9 1.2-.6 6.5-1.5 8.5-2 4.5-4.3 10.2-2.8 11.4 2.6 2 9.8-7.6 9.9-7.8 1.3-1.8 5.2-13.3 8.2-12 3.1 1.3-7.7 16.6-3.7 19.6.8.6 4.1-.4 6.1-2.6 1.3-1.4.9-4.5 5.2-14.9s8.2-23.3 11.2-22.3.5 7.6-.5 10.1c-5 11.6-13.7 30.7-9.6 29.3 4.1-1.4 6.2-1.5 10.2-6.2s3.8-12.4 6.5-12.3c2.7.2 2.2 2.6 1.6 4.5 2.6-3 12.5-9.3 14.8-3.1 2.8 7.4-14.1 18.2-9.9 17.6 4.1-.5 10.8-4.7 13.6-8.6l7.8-70.2s-7.9 6.5-57.9 6.5-57.1-6.4-57.1-6.4l6.7 64.1c3.5-10 11.9-30.3 25.1-29.7 6 .3 14 11.9 7.2 12.3-2.9.2-3.2-5.8-6.7-6.7-2.5-.6-5.9 1.4-8.2 3.6-4.5 4.4-14.1 21.6-12.8 30.2 1.6 11 15.1-3.8 17.4-8.2 1.6-3.1 2.7-12.2 6.2-11.3 3.5 1-.3 10.4-2.9 18.7-2.9 9.4-4.4 19.3-8 18.1-3.6-1.1 2.3-13.2 2-15.3-3.4 3.1-9.6 11-17.5 7.1l4.1 39.8s11 8.7 44.1 8.7 44.5-8.5 44.5-8.5l5.1-46.1c-3.6 4.3-16.9 11.6-17.8 3.4"/></svg><svg viewBox="248 -42 94.1 90.7" id="jquery"><title>jQuery</title><path d="M254-20.7c-8.3 12-7.3 27.6-.9 40.3.2.3.3.6.5.9l.3.6c.1.1.1.2.2.3l.3.6c.2.3.4.7.6 1l.3.6c.2.4.5.7.7 1.1.1.2.2.3.3.5.3.5.7 1 1 1.5.1.1.1.2.2.2l.9 1.2c.1.1.2.3.4.4.3.4.6.7.9 1.1.1.1.2.3.3.4.4.5.8.9 1.2 1.4v.1c.4.4.8.9 1.2 1.3l.4.4 1 1 .4.4c.4.4.9.8 1.3 1.2.1.1.2.1.2.2.4.3.8.7 1.2 1 .2.1.3.3.5.4.3.3.7.5 1 .8.2.1.4.3.5.4.4.3.8.5 1.1.8.1.1.3.2.4.3l.1.1c.4.2.7.5 1.1.7.2.1.3.2.5.3.6.4 1.1.7 1.7 1.1.2.1.3.2.5.3.4.2.9.5 1.3.7.2.1.5.2.7.4.3.2.6.3.9.5.1 0 .1.1.2.1.1.1.3.1.4.2.5.2 1 .5 1.5.7.1 0 .2.1.3.1.6.2 1.1.5 1.7.7.1.1.3.1.4.2.5.2 1.1.4 1.6.6.1 0 .1 0 .2.1l1.8.6c.1 0 .3.1.4.1.6.2 1.2.4 1.9.5 40.3 7.4 52-24.2 52-24.2-9.6 12.6-27 16-43.6 12.2-.6-.1-1.2-.3-1.8-.5-.2 0-.3-.1-.5-.1l-1.8-.6c-.1 0-.2-.1-.2-.1-.5-.2-1-.4-1.6-.6-.1-.1-.3-.1-.4-.2-.6-.2-1.1-.5-1.7-.7-.1 0-.2-.1-.3-.1-.5-.2-1-.4-1.4-.7-.1-.1-.3-.1-.4-.2-.4-.2-.7-.4-1.1-.6-.2-.1-.5-.3-.7-.4-.4-.2-.9-.5-1.3-.7-.1-.1-.3-.2-.4-.2-.6-.3-1.2-.7-1.7-1.1-.2-.1-.3-.2-.5-.3-.4-.3-.8-.5-1.2-.8-.1-.1-.3-.2-.4-.3-.4-.3-.8-.6-1.2-.8-.2-.1-.3-.3-.5-.4-.4-.3-.7-.5-1-.8-.2-.1-.3-.2-.5-.4-.4-.4-.9-.7-1.3-1.1l-.1-.1c-.5-.4-.9-.8-1.4-1.2-.1-.1-.3-.2-.4-.4-.3-.3-.7-.6-1-1l-.4-.4c-.4-.4-.8-.8-1.2-1.3l-.1-.1c-.4-.5-.8-.9-1.2-1.4-.1-.1-.2-.3-.3-.4-.3-.4-.6-.7-.9-1.1-.1-.1-.2-.3-.3-.4-.3-.4-.7-.9-1-1.4-9.2-12.5-12.5-29.8-5.1-44"/><path d="M279.9-30.8c-6 8.7-5.7 20.3-1 29.5.8 1.5 1.7 3 2.7 4.5.9 1.3 1.9 2.8 3.1 3.9.4.5.9.9 1.4 1.4l.4.4c.5.4.9.9 1.4 1.3h.1c.5.5 1.1.9 1.6 1.3.1.1.2.2.4.3.6.4 1.1.8 1.7 1.2.3.2.5.3.8.5.1.1.2.2.4.2.4.3.8.5 1.3.8.1 0 .1.1.2.1.4.2.7.4 1.1.6.1.1.3.1.4.2.3.1.5.3.8.4 0 0 .1 0 .1.1.5.3 1.1.5 1.6.8.1.1.2.1.4.1.4.2.9.4 1.3.5.2.1.4.1.6.2.4.1.8.3 1.2.4.2.1.4.1.5.2.6.2 1.2.4 1.8.5 31.1 5.2 38.3-18.8 38.3-18.8-6.5 9.3-19 13.8-32.4 10.3-.6-.2-1.2-.3-1.8-.5-.2-.1-.4-.1-.5-.2-.4-.1-.8-.3-1.2-.4-.2-.1-.4-.1-.6-.2-.4-.2-.9-.3-1.3-.5-.1-.1-.2-.1-.4-.2-.5-.2-1.1-.5-1.6-.8-.3-.1-.5-.3-.8-.4-.2-.1-.3-.2-.5-.2-.3-.2-.7-.4-1-.6-.4-.1-.5-.1-.6-.1-.4-.2-.8-.5-1.2-.8-.1-.1-.2-.2-.4-.3-.3-.2-.5-.4-.8-.5-.6-.4-1.1-.8-1.7-1.2-.1-.1-.3-.2-.4-.3-5.9-4.6-10.5-10.9-12.7-18.1-2.3-7.4-1.8-15.8 2.2-22.6"/><path d="M301.6-38.4c-3.6 5.2-3.9 11.7-1.4 17.5 2.6 6.1 7.9 10.9 14.1 13.2.3.1.5.2.8.3.1 0 .2.1.3.1.4.1.7.2 1.1.3 17.2 3.3 21.8-8.8 23.1-10.6-4.1 5.9-10.9 7.3-19.4 5.2-.7-.2-1.4-.4-2-.6-.8-.3-1.6-.6-2.4-1-1.5-.7-2.9-1.6-4.2-2.6-7.5-5.7-12.2-16.6-7.3-25.5"/></svg><svg viewBox="0 0 24 24" id="linkedin"><title>LinkedIn</title><path d="M8 19H5V9h3v10zm11 0h-3v-5.342c0-1.392-.496-2.085-1.48-2.085-.778 0-1.272.388-1.52 1.165V19h-3s.04-9 0-10h2.368l.183 2h.063c.615-1 1.598-1.678 2.946-1.678 1.024 0 1.853.285 2.486 1 .637.718.954 1.68.954 3.03V19zM8.05 6.5c0 .828-.694 1.5-1.55 1.5s-1.55-.672-1.55-1.5S5.644 5 6.5 5s1.55.672 1.55 1.5z"/></svg><svg viewBox="0 0 480.097 480.097" id="responsive-web"><title>Responsive Web Design</title><path d="M206.76 332.99H39.224c-3.894 0-7.065-3.173-7.065-7.067V53.353c0-3.893 3.172-7.065 7.065-7.065h401.63c3.896 0 7.066 3.172 7.066 7.065v59.696c11.764 1.388 22.786 5.243 32.16 11.58V53.353c0-21.63-17.602-39.225-39.225-39.225H39.225C17.602 14.128 0 31.722 0 53.353v272.57c0 21.63 17.602 39.226 39.225 39.226h134.62v52.58h-21.23c-13.315 0-24.12 10.796-24.12 24.12 0 13.324 10.805 24.12 24.12 24.12h67.71c-8.462-11.902-13.565-26.35-13.565-42.037V332.99z"/><path d="M341.74 441.645v-34.742h-70.663V185c0-4.682 3.8-8.49 8.48-8.49h159.886c4.68 0 8.478 3.808 8.478 8.49v68.675h12.047c7.364 0 14.18 2.127 20.113 5.597V185c0-22.418-18.23-40.65-40.638-40.65H279.556c-22.407 0-40.638 18.232-40.638 40.65V423.93c0 22.417 18.23 40.647 40.638 40.647h69.438c-4.428-6.36-7.255-15.22-7.255-22.935z"/><path d="M459.967 273.775H381.97c-11.103 0-20.13 9.037-20.13 20.138v147.732c0 11.1 9.027 20.13 20.13 20.13h77.997c11.102 0 20.13-9.03 20.13-20.13V293.912c0-11.1-9.03-20.137-20.13-20.137zm-74.01 24.12h70.02v127.702h-70.02V297.894zm35.02 154.098c-2.215 0-4.193-.896-5.7-2.277-1.713-1.555-2.812-3.74-2.812-6.228 0-4.694 3.8-8.495 8.512-8.495 4.68 0 8.48 3.8 8.48 8.495 0 2.49-1.1 4.672-2.796 6.228-1.508 1.382-3.486 2.277-5.683 2.277z"/></svg><svg viewBox="0 0 16 16" fill-rule="evenodd" clip-rule="evenodd" stroke-linejoin="round" stroke-miterlimit="1.414" id="sass"><title>Sass</title><path d="M8 0a8 8 0 1 1 0 16A8 8 0 0 1 8 0zM6.41 10.665c.117.43.104.832-.016 1.195l-.044.12a2.237 2.237 0 0 1-.422.657c-.465.506-1.114.698-1.393.536-.3-.174-.15-.89.39-1.46.58-.612 1.413-1.006 1.413-1.006v-.002l.072-.04zm6.608-7.24c-.362-1.422-2.718-1.89-4.948-1.097C6.743 2.8 5.307 3.54 4.274 4.506 3.046 5.654 2.85 6.654 2.93 7.072c.285 1.474 2.305 2.438 3.136 3.153v.004c-.245.12-2.037 1.025-2.457 1.952-.444.98.07 1.68.41 1.775 1.05.293 2.13-.234 2.71-1.1.56-.835.514-1.913.27-2.45a3.246 3.246 0 0 1 1.225-.07c1.403.164 1.68 1.04 1.626 1.407-.052.367-.346.568-.445.63-.098.06-.128.08-.12.126.012.067.058.065.142.05.115-.02.737-.298.763-.975.035-.86-.79-1.82-2.247-1.795-.6.01-.978.067-1.25.17-.02-.024-.042-.047-.063-.07-.9-.962-2.568-1.642-2.497-2.935.025-.47.19-1.708 3.202-3.21 2.47-1.23 4.445-.89 4.786-.14.49 1.07-1.054 3.062-3.617 3.35-.977.11-1.49-.27-1.62-.41-.134-.15-.154-.155-.204-.127-.083.045-.03.176 0 .254.075.2.39.552.925.728.47.155 1.618.24 3.004-.297 1.553-.6 2.765-2.272 2.41-3.67z"/></svg><svg viewBox="0 0 260 260" id="twitter"><title>Twitter</title><path d="M233.5 65.8c-7.6 3.4-15.8 5.7-24.4 6.7 8.8-5.3 15.5-13.6 18.7-23.5-8.2 4.9-17.3 8.4-27 10.3-7.7-8.3-18.8-13.4-31-13.4-23.5 0-42.5 19-42.5 42.5 0 3.3.4 6.6 1.1 9.7-35.3-1.8-66.6-18.7-87.6-44.4-3.7 6.3-5.7 13.6-5.7 21.4 0 14.8 7.5 27.7 18.9 35.4-7-.2-13.5-2.1-19.2-5.3v.5c0 20.6 14.6 37.8 34.1 41.7-3.6 1-7.3 1.5-11.2 1.5-2.7 0-5.4-.3-8-.8 5.4 16.9 21.1 29.2 39.7 29.5-14.5 11.4-32.9 18.2-52.8 18.2-3.4 0-6.8-.2-10.1-.6 18.8 12 41.1 19.1 65.1 19.1 78.2 0 120.9-64.7 120.9-120.9 0-1.9-.1-3.7-.1-5.5 8.2-6.1 15.4-13.6 21.1-22.1z"/></svg><svg viewBox="0 0 459.996 459.996" id="ui-ux-design"><title>UI/UX Design</title><path d="M331.726 0H128.27c-20.562 0-37.306 16.737-37.306 37.307V422.69c0 20.56 16.744 37.306 37.306 37.306h203.456c20.57 0 37.306-16.744 37.306-37.306V37.307C369.032 16.737 352.295 0 331.726 0zM123.44 37.307a4.836 4.836 0 0 1 4.83-4.83h203.456a4.836 4.836 0 0 1 4.83 4.83v343.525H123.44V37.307zm84.383 384.274c0-12.237 9.928-22.166 22.16-22.166 12.26 0 22.187 9.93 22.187 22.167 0 12.238-9.927 22.182-22.188 22.182-12.23 0-22.16-9.944-22.16-22.18z"/><path d="M269.838 137.895c-16.947 0-31.66 9.14-39.848 22.683-8.166-13.542-22.878-22.683-39.848-22.683-25.78 0-46.688 20.914-46.688 46.702 0 56.758 86.537 101.316 86.537 101.316s86.55-44.56 86.55-101.316c0-25.788-20.898-46.702-46.702-46.702zm-77.02 23.395c-.345-.03-.704-.044-1.057-.044-8.18 0-14.8 6.628-14.8 14.788 0 .307.007.63.028.93a2.663 2.663 0 0 1-1.62 2.654 2.682 2.682 0 0 1-3.037-.66 14.57 14.57 0 0 1-3.815-9.854c0-8.18 6.613-14.803 14.788-14.803 4.214 0 7.986 1.793 10.663 4.636.398.42.495 1.05.24 1.574-.248.518-.81.833-1.387.78z"/></svg><svg viewBox="0 0 444.816 444.816" id="web-design"><title>Web Design</title><path d="M162.87 374.49L144.184 355.8l56.66-56.734-13.474-18.392-59.128 59.186-18.937-18.936h-.015l62.093-62.078-2.716-3.7c-9.352-.895-18.01-4.783-25.116-10.98l-68.167 68.156c-1.307 1.306-2.933 3.327-3.988 7.103-7.47 26.702-29.848 104.268-29.848 104.268a15.01 15.01 0 0 0 3.816 14.767 15.005 15.005 0 0 0 10.627 4.404c1.38 0 2.775-.19 4.14-.588l104.853-30.063a15.025 15.025 0 0 0 6.487-3.816l63.18-63.18-17.967-24.527-53.812 53.796zm-60.404 24.38l-17.54-17.512 11.786-41.145 46.886 46.87-41.132 11.787zM254.673 169.01l3.788 2.776 35.73-35.715 18.803 18.806-32.794 32.837 18.408 13.476 30.325-30.372 18.82 18.818-27.45 27.45 24.527 17.967 58.526-57.395c26.76-26.76 26.774-70.15.015-96.925l-.03-.03a68.586 68.586 0 0 0-48.438-20.08 68.544 68.544 0 0 0-48.457 20.067l-62.68 63.28c6.3 7.25 10.07 15.97 10.908 25.04zM162.416 220.887a14.98 14.98 0 0 0 10.627 4.404c3.112 0 6.092-1.218 8.72-3.14l21.416 29.224 47.78-47.81-29.21-21.402c4.3-5.87 4.05-14.033-1.264-19.347a14.982 14.982 0 0 0-10.628-4.403 14.982 14.982 0 0 0-10.628 4.403l-36.814 36.816c-5.872 5.874-5.872 15.386 0 21.257zM417.405 325.49L275.502 221.534l-54.356 54.385L325.09 417.806a66.088 66.088 0 0 0 48.234 26.82c1.688.13 3.36.19 5.034.19a66.02 66.02 0 0 0 46.708-19.347 66.042 66.042 0 0 0 19.158-51.744 66.085 66.085 0 0 0-26.82-48.236zM117.19 187.92a30.58 30.58 0 0 0 19.802-4.435 30.36 30.36 0 0 0 5.372-4.27s29.66-29.723 39.59-39.59c9.957-9.894 10.158-19.582 8.22-28.256-4.462-19.847-14.43-39.077-27.11-51.114-36.875-35.053-57.528-8.763-93.727-19.95C46.29 33.173 25.93 14.25 14.82 2.287 12.967.29 10.15-.47 7.552.29a7.136 7.136 0 0 0-5.006 5.637C-2.298 33.833-4.483 99.155 59.75 163.39c13.007 12.99 35.07 21.872 57.44 24.53z"/></svg><svg viewBox="0 0 16 16" fill-rule="evenodd" clip-rule="evenodd" stroke-linejoin="round" stroke-miterlimit="1.414" id="wordpress"><title>WordPress</title><path d="M14.312 4.55a7.19 7.19 0 0 1-2.696 9.667l2.197-6.352c.41-1.026.547-1.847.547-2.576 0-.267-.018-.513-.048-.74m-5.32.076c.432-.022.822-.068.822-.068.388-.047.342-.616-.045-.594 0 0-1.168.092-1.92.092-.706 0-1.894-.092-1.894-.092-.388-.022-.433.57-.046.593 0 0 .368.045.756.067l1.12 3.07-1.574 4.72-2.62-7.79c.434-.022.824-.068.824-.068.387-.047.342-.616-.046-.594 0 0-1.165.092-1.917.092-.135 0-.294-.004-.463-.01a7.198 7.198 0 0 1 10.867-1.346c-.03-.002-.06-.006-.093-.006-.707 0-1.208.615-1.208 1.276 0 .593.342 1.095.706 1.687.274.48.594 1.095.594 1.984 0 .614-.237 1.33-.548 2.324l-.717 2.397-2.6-7.732zM8 15.193a7.212 7.212 0 0 1-2.032-.293l2.158-6.27 2.21 6.056c.016.035.033.068.052.1A7.2 7.2 0 0 1 8 15.193M.807 8c0-1.043.224-2.033.623-2.927l3.43 9.4A7.196 7.196 0 0 1 .808 8M8 0C3.59 0 0 3.59 0 8s3.59 8 8 8 8-3.59 8-8-3.59-8-8-8" fill-rule="nonzero"/></svg></defs></svg>